<svg version="1.1" id="Layer_1" xmlns="http://www.w3.org/2000/svg" xmlns:xlink="http://www.w3.org/1999/xlink" x="0px" y="0px"
	 width="100%" viewBox="0 0 300 280" enable-background="new 0 0 300 280" xml:space="preserve">
<path fill="#FEFEFE" opacity="1.000000" stroke="none" 
	d="
M54.000000,281.000000 
	C40.979103,281.000000 27.958210,281.000000 14.612413,280.678802 
	C15.272726,278.894531 16.681402,277.559357 17.168568,275.945892 
	C19.096613,269.560455 16.809772,264.370789 12.484555,259.561737 
	C10.385458,257.227814 8.843465,254.212341 7.762005,251.245590 
	C7.403245,250.261429 9.269785,248.466064 10.118939,247.041580 
	C11.055914,248.352737 12.358301,249.546661 12.827061,251.008011 
	C13.295516,252.468399 12.929865,254.196350 12.929865,256.140991 
	C14.693872,256.007355 15.896057,255.916306 16.953161,255.836227 
	C16.953161,253.288651 17.142654,251.113098 16.912172,248.983002 
	C16.483881,245.024734 14.041238,243.143753 10.122519,243.228622 
	C6.508955,243.306885 4.333962,244.908890 3.633989,248.742874 
	C2.627168,254.257568 4.805211,258.215698 8.372024,262.199982 
	C10.651567,264.746338 12.232404,268.215302 13.162291,271.540283 
	C13.590437,273.071228 11.706806,275.248718 10.871424,277.133026 
	C9.870528,275.378357 8.771155,273.669708 7.919403,271.845398 
	C7.599026,271.159180 7.791582,270.200073 7.855919,269.373596 
	C8.099266,266.247589 6.667958,265.580566 3.644648,266.719940 
	C3.611007,271.739807 2.951157,276.864929 7.000000,281.000000 
	C5.006601,281.000000 3.013202,281.000000 1.000000,281.000000 
	C1.000000,238.979111 1.000000,196.958206 1.370168,154.583130 
	C2.104944,155.676346 2.526538,157.112045 2.825836,158.572815 
	C10.566504,196.352219 43.055626,222.980148 81.521935,223.019730 
	C106.841972,223.045776 132.162064,223.028839 157.482132,223.016708 
	C158.921417,223.016006 160.360626,222.884094 162.259247,222.790619 
	C162.259247,156.431442 162.259247,90.383202 162.259247,23.991322 
	C182.195587,23.991322 201.654037,23.912289 221.111603,24.010464 
	C248.045029,24.146360 271.765320,43.035965 276.836578,69.454636 
	C278.761139,79.480621 278.678986,89.976395 278.731750,100.262047 
	C278.931732,139.240601 278.812256,178.220795 278.812256,217.200378 
	C278.812256,218.993362 278.812256,220.786346 278.812256,223.000000 
	C286.436035,223.000000 293.718018,223.000000 301.000000,223.000000 
	C301.000000,242.333359 301.000000,261.666718 301.000000,281.000000 
	C298.621277,281.000000 296.305359,281.000000 293.579346,280.649567 
	C294.149139,278.483673 295.625427,276.769226 296.019257,274.834473 
	C297.408569,268.009308 294.471130,262.808105 289.827179,257.884308 
	C287.890625,255.831100 287.567474,252.166351 286.838226,249.155029 
	C286.720062,248.667007 288.312012,247.213272 289.117371,247.210205 
	C289.903534,247.207199 291.189545,248.375824 291.386810,249.230698 
	C291.892181,251.420456 291.914337,253.721725 292.210602,256.825867 
	C297.981934,255.162064 295.653412,251.289612 295.352020,248.292206 
	C294.979462,244.586716 292.470856,243.282654 289.113922,243.254913 
	C285.771271,243.227310 283.442688,244.592285 282.514923,248.082382 
	C281.066711,253.530319 283.103302,257.649658 286.682190,261.640137 
	C288.912292,264.126740 290.970459,267.142609 291.911316,270.279236 
	C292.545105,272.391968 293.772003,276.457031 289.477844,276.871246 
	C288.736694,276.942749 287.565521,272.868286 286.662415,270.680237 
	C286.486053,270.252930 286.605865,269.691650 286.632050,269.194427 
	C286.810181,265.813782 284.996033,265.814209 282.281464,266.739288 
	C282.025208,271.943542 281.937317,276.969818 286.000000,281.000000 
	C273.645782,281.000000 261.291534,281.000000 248.600586,280.595123 
	C248.263855,268.165192 248.263855,256.140137 248.263855,243.768433 
	C246.779602,243.855011 245.045975,243.956131 243.401184,244.052063 
	C241.804230,253.479675 240.290543,262.415710 238.776855,271.351715 
	C238.538193,271.336853 238.299530,271.321960 238.060867,271.307068 
	C236.427933,262.219696 234.795013,253.132324 233.163055,244.050354 
	C231.232941,244.050354 229.781952,244.050354 228.000000,244.050354 
	C228.000000,256.460327 228.000000,268.730164 228.000000,281.000000 
	C216.645767,281.000000 205.291550,281.000000 193.593719,280.614807 
	C193.516129,279.258575 193.782166,278.287598 194.172073,276.864502 
	C191.809235,276.864502 190.051666,276.864502 188.210449,276.864502 
	C188.210449,272.304779 188.210449,268.076752 188.210449,263.873627 
	C193.589783,263.427307 193.589783,263.427307 193.652878,259.892395 
	C191.904739,259.892395 190.140823,259.892395 188.282730,259.892395 
	C188.282730,255.487549 188.282730,251.451141 188.282730,247.230209 
	C189.434235,247.230209 190.327133,247.443405 191.047440,247.181656 
	C192.208191,246.759827 193.255127,246.024826 194.350128,245.422119 
	C193.182312,244.919785 192.046448,244.105911 190.839798,243.982193 
	C188.570282,243.749481 186.259903,243.915085 184.000000,243.915085 
	C184.000000,256.531677 184.000000,268.765839 184.000000,281.000000 
	C171.979111,281.000000 159.958206,281.000000 147.630981,280.601257 
	C147.589539,278.472473 148.068909,276.744232 148.083481,275.012085 
	C148.160126,265.898376 148.119354,256.783691 148.119354,248.692444 
	C150.048569,247.106750 151.211609,246.150818 152.374634,245.194870 
	C152.145508,244.730530 151.916367,244.266174 151.687225,243.801819 
	C148.389801,243.801819 145.088196,243.715210 141.798401,243.873688 
	C141.126816,243.906036 140.499573,244.858963 139.851898,245.387527 
	C140.421921,245.991913 140.905487,246.735046 141.587372,247.159912 
	C142.212845,247.549667 143.052246,247.596146 144.000000,247.847626 
	C144.000000,259.043091 144.000000,270.021545 144.000000,281.000000 
	C131.645767,281.000000 119.291542,281.000000 106.568962,280.659058 
	C107.197319,278.677856 108.642273,277.155487 109.110252,275.376129 
	C110.800041,268.951202 108.297501,263.839508 103.910843,259.138428 
	C101.889206,256.971893 100.443756,254.051636 99.491707,251.219437 
	C99.155380,250.218918 101.062912,248.464127 101.945999,247.053711 
	C102.895241,248.362946 104.212990,249.552078 104.689804,251.015259 
	C105.164146,252.470886 104.793724,254.201797 104.793724,256.165131 
	C106.511978,256.027557 107.717201,255.931061 108.954697,255.831970 
	C108.954697,253.823578 109.065392,252.165619 108.934204,250.527039 
	C108.519936,245.352783 106.413155,243.170547 102.021347,243.212830 
	C97.657806,243.254837 95.538139,245.590485 95.057671,250.589142 
	C94.574982,255.610931 97.096169,259.196564 100.539001,262.279266 
	C104.009613,265.386841 105.945679,269.073334 105.015236,273.730682 
	C104.762749,274.994507 103.331444,276.022827 102.441177,277.159241 
	C101.588219,276.135406 100.232628,275.218567 99.987068,274.065399 
	C99.478294,271.676086 99.559479,269.161102 99.400810,266.739624 
	C95.352356,266.308289 94.788712,266.413666 95.307892,269.191040 
	C96.060432,273.216736 97.724655,277.072021 99.000000,281.000000 
	C85.312439,281.000000 71.624878,281.000000 57.617424,280.599762 
	C57.540302,279.124237 58.075565,278.021759 57.978657,276.978027 
	C57.322365,269.909729 58.884228,263.208466 60.964520,256.541565 
	C62.222095,252.511307 63.194229,248.391983 64.382805,243.985748 
	C62.820541,243.985748 61.115635,243.704163 60.991394,244.028366 
	C59.361870,248.280258 57.955582,252.617706 56.218136,257.745758 
	C55.193130,254.329773 54.362766,251.523575 53.507950,248.724854 
	C52.693096,246.057007 52.585800,242.458572 47.817440,244.423126 
	C51.932198,256.356171 55.654343,268.242920 54.000000,281.000000 
z"/>
<path fill="#FEFEFE" opacity="1.000000" stroke="none" 
	d="
M23.000000,1.000000 
	C61.687561,1.000000 100.375122,1.000000 139.501877,1.467850 
	C139.941071,67.863358 139.941071,133.791016 139.941071,199.920227 
	C138.028488,200.023941 136.731018,200.154694 135.433441,200.155594 
	C117.273415,200.168152 99.111839,200.311539 80.953758,200.123322 
	C59.786343,199.903931 43.704033,190.316330 32.322308,172.689285 
	C25.499659,162.122940 23.364742,150.249496 23.358166,137.896927 
	C23.334841,94.079613 23.353239,50.262287 23.334295,6.444973 
	C23.333509,4.629934 23.116352,2.814989 23.000000,1.000000 
z"/>
<path fill="#010101" opacity="1.000000" stroke="none" 
	d="
M22.531216,1.000000 
	C23.116352,2.814989 23.333509,4.629934 23.334295,6.444973 
	C23.353239,50.262287 23.334841,94.079613 23.358166,137.896927 
	C23.364742,150.249496 25.499659,162.122940 32.322308,172.689285 
	C43.704033,190.316330 59.786343,199.903931 80.953758,200.123322 
	C99.111839,200.311539 117.273415,200.168152 135.433441,200.155594 
	C136.731018,200.154694 138.028488,200.023941 139.941071,199.920227 
	C139.941071,133.791016 139.941071,67.863358 139.970535,1.467850 
	C170.020889,1.000000 200.041794,1.000000 230.671997,1.374237 
	C263.806641,6.130553 290.896149,30.482729 298.617279,62.248386 
	C299.331116,65.185135 300.202026,68.083702 301.000000,71.000000 
	C301.000000,121.354225 301.000000,171.708450 301.000000,222.531342 
	C293.718018,223.000000 286.436035,223.000000 278.812256,223.000000 
	C278.812256,220.786346 278.812256,218.993362 278.812256,217.200378 
	C278.812256,178.220795 278.931732,139.240601 278.731750,100.262047 
	C278.678986,89.976395 278.761139,79.480621 276.836578,69.454636 
	C271.765320,43.035965 248.045029,24.146360 221.111603,24.010464 
	C201.654037,23.912289 182.195587,23.991322 162.259247,23.991322 
	C162.259247,90.383202 162.259247,156.431442 162.259247,222.790619 
	C160.360626,222.884094 158.921417,223.016006 157.482132,223.016708 
	C132.162064,223.028839 106.841972,223.045776 81.521935,223.019730 
	C43.055626,222.980148 10.566504,196.352219 2.825836,158.572815 
	C2.526538,157.112045 2.104944,155.676346 1.370168,154.114471 
	C1.000000,102.999969 1.000000,51.999947 1.000000,1.000000 
	C8.097525,1.000000 15.079980,1.000000 22.531216,1.000000 
z"/>
<path fill="#FCFCFC" opacity="1.000000" stroke="none" 
	d="
M301.000000,70.531342 
	C300.202026,68.083702 299.331116,65.185135 298.617279,62.248386 
	C290.896149,30.482729 263.806641,6.130553 231.140656,1.374237 
	C254.260178,1.000000 277.520355,1.000000 301.000000,1.000000 
	C301.000000,24.020430 301.000000,47.041557 301.000000,70.531342 
z"/>
<path fill="#0C0C0C" opacity="1.000000" stroke="none" 
	d="
M228.333328,281.000000 
	C228.000000,268.730164 228.000000,256.460327 228.000000,244.050354 
	C229.781952,244.050354 231.232941,244.050354 233.163055,244.050354 
	C234.795013,253.132324 236.427933,262.219696 238.060867,271.307068 
	C238.299530,271.321960 238.538193,271.336853 238.776855,271.351715 
	C240.290543,262.415710 241.804230,253.479675 243.401184,244.052063 
	C245.045975,243.956131 246.779602,243.855011 248.263855,243.768433 
	C248.263855,256.140137 248.263855,268.165192 248.131927,280.595123 
	C247.250000,281.000000 246.500000,281.000000 245.390045,280.531677 
	C245.030075,273.511200 245.030075,266.959045 245.030075,260.406921 
	C243.884964,261.327484 243.248047,262.414154 243.046249,263.576385 
	C242.314713,267.789703 241.947296,272.078949 240.984146,276.233276 
	C240.583801,277.959991 239.029526,279.419159 238.000000,281.000000 
	C237.555557,281.000000 237.111099,281.000000 236.405273,280.579346 
	C234.988312,273.470306 233.832748,266.781952 232.677200,260.093597 
	C232.119919,260.137970 231.562653,260.182343 231.005386,260.226715 
	C231.005386,263.261963 231.132568,266.303864 230.973633,269.330750 
	C230.769058,273.226807 230.335129,277.110809 230.000000,281.000000 
	C229.555557,281.000000 229.111099,281.000000 228.333328,281.000000 
z"/>
<path fill="#131313" opacity="1.000000" stroke="none" 
	d="
M99.437500,281.000000 
	C97.724655,277.072021 96.060432,273.216736 95.307892,269.191040 
	C94.788712,266.413666 95.352356,266.308289 99.400810,266.739624 
	C99.559479,269.161102 99.478294,271.676086 99.987068,274.065399 
	C100.232628,275.218567 101.588219,276.135406 102.441177,277.159241 
	C103.331444,276.022827 104.762749,274.994507 105.015236,273.730682 
	C105.945679,269.073334 104.009613,265.386841 100.539001,262.279266 
	C97.096169,259.196564 94.574982,255.610931 95.057671,250.589142 
	C95.538139,245.590485 97.657806,243.254837 102.021347,243.212830 
	C106.413155,243.170547 108.519936,245.352783 108.934204,250.527039 
	C109.065392,252.165619 108.954697,253.823578 108.954697,255.831970 
	C107.717201,255.931061 106.511978,256.027557 104.793724,256.165131 
	C104.793724,254.201797 105.164146,252.470886 104.689804,251.015259 
	C104.212990,249.552078 102.895241,248.362946 101.945999,247.053711 
	C101.062912,248.464127 99.155380,250.218918 99.491707,251.219437 
	C100.443756,254.051636 101.889206,256.971893 103.910843,259.138428 
	C108.297501,263.839508 110.800041,268.951202 109.110252,275.376129 
	C108.642273,277.155487 107.197319,278.677856 106.100304,280.659058 
	C103.958336,281.000000 101.916664,281.000000 99.437500,281.000000 
z"/>
<path fill="#131313" opacity="1.000000" stroke="none" 
	d="
M7.437500,281.000000 
	C2.951157,276.864929 3.611007,271.739807 3.644648,266.719940 
	C6.667958,265.580566 8.099266,266.247589 7.855919,269.373596 
	C7.791582,270.200073 7.599026,271.159180 7.919403,271.845398 
	C8.771155,273.669708 9.870528,275.378357 10.871424,277.133026 
	C11.706806,275.248718 13.590437,273.071228 13.162291,271.540283 
	C12.232404,268.215302 10.651567,264.746338 8.372024,262.199982 
	C4.805211,258.215698 2.627168,254.257568 3.633989,248.742874 
	C4.333962,244.908890 6.508955,243.306885 10.122519,243.228622 
	C14.041238,243.143753 16.483881,245.024734 16.912172,248.983002 
	C17.142654,251.113098 16.953161,253.288651 16.953161,255.836227 
	C15.896057,255.916306 14.693872,256.007355 12.929865,256.140991 
	C12.929865,254.196350 13.295516,252.468399 12.827061,251.008011 
	C12.358301,249.546661 11.055914,248.352737 10.118939,247.041580 
	C9.269785,248.466064 7.403245,250.261429 7.762005,251.245590 
	C8.843465,254.212341 10.385458,257.227814 12.484555,259.561737 
	C16.809772,264.370789 19.096613,269.560455 17.168568,275.945892 
	C16.681402,277.559357 15.272726,278.894531 14.143755,280.678802 
	C11.958333,281.000000 9.916667,281.000000 7.437500,281.000000 
z"/>
<path fill="#121212" opacity="1.000000" stroke="none" 
	d="
M286.437500,281.000000 
	C281.937317,276.969818 282.025208,271.943542 282.281464,266.739288 
	C284.996033,265.814209 286.810181,265.813782 286.632050,269.194427 
	C286.605865,269.691650 286.486053,270.252930 286.662415,270.680237 
	C287.565521,272.868286 288.736694,276.942749 289.477844,276.871246 
	C293.772003,276.457031 292.545105,272.391968 291.911316,270.279236 
	C290.970459,267.142609 288.912292,264.126740 286.682190,261.640137 
	C283.103302,257.649658 281.066711,253.530319 282.514923,248.082382 
	C283.442688,244.592285 285.771271,243.227310 289.113922,243.254913 
	C292.470856,243.282654 294.979462,244.586716 295.352020,248.292206 
	C295.653412,251.289612 297.981934,255.162064 292.210602,256.825867 
	C291.914337,253.721725 291.892181,251.420456 291.386810,249.230698 
	C291.189545,248.375824 289.903534,247.207199 289.117371,247.210205 
	C288.312012,247.213272 286.720062,248.667007 286.838226,249.155029 
	C287.567474,252.166351 287.890625,255.831100 289.827179,257.884308 
	C294.471130,262.808105 297.408569,268.009308 296.019257,274.834473 
	C295.625427,276.769226 294.149139,278.483673 293.084625,280.649567 
	C290.958344,281.000000 288.916656,281.000000 286.437500,281.000000 
z"/>
<path fill="#080808" opacity="1.000000" stroke="none" 
	d="
M184.449982,281.000000 
	C184.000000,268.765839 184.000000,256.531677 184.000000,243.915085 
	C186.259903,243.915085 188.570282,243.749481 190.839798,243.982193 
	C192.046448,244.105911 193.182312,244.919785 194.350128,245.422119 
	C193.255127,246.024826 192.208191,246.759827 191.047440,247.181656 
	C190.327133,247.443405 189.434235,247.230209 188.282730,247.230209 
	C188.282730,251.451141 188.282730,255.487549 188.282730,259.892395 
	C190.140823,259.892395 191.904739,259.892395 193.652878,259.892395 
	C193.589783,263.427307 193.589783,263.427307 188.210449,263.873627 
	C188.210449,268.076752 188.210449,272.304779 188.210449,276.864502 
	C190.051666,276.864502 191.809235,276.864502 194.172073,276.864502 
	C193.782166,278.287598 193.516129,279.258575 193.125061,280.614807 
	C190.299988,281.000000 187.599976,281.000000 184.449982,281.000000 
z"/>
<path fill="#0F0F0F" opacity="1.000000" stroke="none" 
	d="
M54.375000,281.000000 
	C55.654343,268.242920 51.932198,256.356171 47.817440,244.423126 
	C52.585800,242.458572 52.693096,246.057007 53.507950,248.724854 
	C54.362766,251.523575 55.193130,254.329773 56.218136,257.745758 
	C57.955582,252.617706 59.361870,248.280258 60.991394,244.028366 
	C61.115635,243.704163 62.820541,243.985748 64.382805,243.985748 
	C63.194229,248.391983 62.222095,252.511307 60.964520,256.541565 
	C58.884228,263.208466 57.322365,269.909729 57.978657,276.978027 
	C58.075565,278.021759 57.540302,279.124237 57.148766,280.599762 
	C56.250000,281.000000 55.500000,281.000000 54.375000,281.000000 
z"/>
<path fill="#000000" opacity="1.000000" stroke="none" 
	d="
M144.375000,281.000000 
	C144.000000,270.021545 144.000000,259.043091 144.000000,247.847626 
	C143.052246,247.596146 142.212845,247.549667 141.587372,247.159912 
	C140.905487,246.735046 140.421921,245.991913 139.851898,245.387527 
	C140.499573,244.858963 141.126816,243.906036 141.798401,243.873688 
	C145.088196,243.715210 148.389801,243.801819 151.687225,243.801819 
	C151.916367,244.266174 152.145508,244.730530 152.374634,245.194870 
	C151.211609,246.150818 150.048569,247.106750 148.119354,248.692444 
	C148.119354,256.783691 148.160126,265.898376 148.083481,275.012085 
	C148.068909,276.744232 147.589539,278.472473 147.162323,280.601257 
	C146.250000,281.000000 145.500000,281.000000 144.375000,281.000000 
z"/>
<path fill="#F6F6F6" opacity="1.000000" stroke="none" 
	d="
M230.428467,281.000000 
	C230.335129,277.110809 230.769058,273.226807 230.973633,269.330750 
	C231.132568,266.303864 231.005386,263.261963 231.005386,260.226715 
	C231.562653,260.182343 232.119919,260.137970 232.677200,260.093597 
	C233.832748,266.781952 234.988312,273.470306 236.071930,280.579346 
	C234.285645,281.000000 232.571289,281.000000 230.428467,281.000000 
z"/>
<path fill="#F1F1F1" opacity="1.000000" stroke="none" 
	d="
M238.437500,281.000000 
	C239.029526,279.419159 240.583801,277.959991 240.984146,276.233276 
	C241.947296,272.078949 242.314713,267.789703 243.046249,263.576385 
	C243.248047,262.414154 243.884964,261.327484 245.030075,260.406921 
	C245.030075,266.959045 245.030075,273.511200 245.015045,280.531677 
	C242.958328,281.000000 240.916672,281.000000 238.437500,281.000000 
z"/>
</svg>